<svg id="icon-Policies-outlined" xmlns="http://www.w3.org/2000/svg" fill="none" viewBox="0 0 20 20" class="u2qzks0z2__design-iconfont">
        <path d="M8 7.5C8 7.08579 8.33579 6.75 8.75 6.75H11.25C11.6642 6.75 12 7.08579 12 7.5C12 7.91421 11.6642 8.25 11.25 8.25H8.75C8.33579 8.25 8 7.91421 8 7.5Z" fill="currentColor"></path>  <path d="M8.75 9.75C8.33579 9.75 8 10.0858 8 10.5C8 10.9142 8.33579 11.25 8.75 11.25H11.25C11.6642 11.25 12 10.9142 12 10.5C12 10.0858 11.6642 9.75 11.25 9.75H8.75Z" fill="currentColor"></path>  <path fill-rule="evenodd" clip-rule="evenodd" d="M2.5 5.75C2.5 4.64543 3.39543 3.75 4.5 3.75L4.50558 3.75001H13C14.1046 3.75001 15 4.64544 15 5.75001V13.25H17C17.4142 13.25 17.75 13.5858 17.75 14V15.5C17.75 16.7426 16.7426 17.75 15.5 17.75H7.75C6.23122 17.75 5 16.5188 5 15V10.25H3.25C2.83579 10.25 2.5 9.91421 2.5 9.5V5.75ZM7.75 16.25C8.44036 16.25 9 15.6904 9 15V14C9 13.5858 9.33579 13.25 9.75 13.25H13.5V5.75001C13.5 5.47386 13.2761 5.25001 13 5.25001H6.43699C6.45101 5.30446 6.46279 5.3598 6.47222 5.41594C6.49049 5.52457 6.5 5.63617 6.5 5.75V15C6.5 15.6904 7.05964 16.25 7.75 16.25ZM10.5 14.75V15C10.5 15.4501 10.3919 15.875 10.2001 16.25H15.5C15.9142 16.25 16.25 15.9142 16.25 15.5V14.75H10.5ZM4 5.75C4 5.47458 4.22269 5.25117 4.49784 5.25L4.5 5.25001C4.74162 5.25001 4.94322 5.42139 4.98984 5.64923C4.9965 5.68178 5 5.71548 5 5.75V8.75H4V5.75Z" fill="currentColor"></path>
      </svg>