<svg id="icon-generalsetting_unselected" xmlns="http://www.w3.org/2000/svg" viewBox="0 0 20 20" class="r5urm7fcz__design-iconfont">
        <path d="M6.72245 3.81641H9.24648V6.44141H4.00134C4.10495 6.11633 4.2689 5.811 4.48717 5.54236L5.36425 4.46287C5.69656 4.05388 6.19548 3.81641 6.72245 3.81641Z"></path>  <path d="M15.3215 5.58307C15.5166 5.84317 15.6627 6.13401 15.7551 6.44141H10.4965V3.81641H13.1215C13.6723 3.81641 14.191 4.07575 14.5215 4.51641L15.3215 5.58307Z"></path>  <path fill-rule="evenodd" clip-rule="evenodd" d="M3.87148 7.69141H15.8715V11.5314C15.1796 11.7649 14.6814 12.4193 14.6814 13.19V13.69C14.6814 13.9338 14.565 14.1505 14.3848 14.2875C14.3128 13.9815 14.1575 13.6911 13.9188 13.4525C13.2354 12.7691 12.1274 12.7691 11.444 13.4525L9.94397 14.9525C9.69786 15.1986 9.54038 15.4998 9.47153 15.8164H5.62148C4.65498 15.8164 3.87148 15.0329 3.87148 14.0664V7.69141ZM6.37148 12.5664V10.5664C6.37148 10.1522 6.70727 9.81641 7.12148 9.81641H10.1215C10.5357 9.81641 10.8715 10.1522 10.8715 10.5664V12.5664C10.8715 12.9806 10.5357 13.3164 10.1215 13.3164H7.12148C6.70727 13.3164 6.37148 12.9806 6.37148 12.5664Z"></path>  <path d="M16.4314 12.4399C16.8456 12.4399 17.1814 12.7757 17.1814 13.1899V13.6899C17.1814 15.4849 15.7263 16.9399 13.9314 16.9399H12.9921L13.2117 17.1596C13.5046 17.4525 13.5046 17.9274 13.2117 18.2203C12.9188 18.5132 12.444 18.5132 12.1511 18.2203L10.6511 16.7203C10.3582 16.4274 10.3582 15.9525 10.6511 15.6596L12.1511 14.1596C12.444 13.8667 12.9188 13.8667 13.2117 14.1596C13.5046 14.4525 13.5046 14.9274 13.2117 15.2203L12.9921 15.4399H13.9314C14.8979 15.4399 15.6814 14.6564 15.6814 13.6899V13.1899C15.6814 12.7757 16.0172 12.4399 16.4314 12.4399Z"></path>
      </svg>