<svg id="icon-ExchangePC" xmlns="http://www.w3.org/2000/svg" fill="none" viewBox="0 0 48 48" class="1r44im4x9__design-iconfont">
        <path fill-rule="evenodd" clip-rule="evenodd" d="M34.75 7.5H37.9179C38.2691 7.5 38.5946 7.6843 38.7753 7.9855L40.134 10.25H34.75V7.5ZM34 6H30.0821C29.204 6 28.3902 6.46075 27.9384 7.21376L26.4988 9.61315C26.1724 10.1571 26 10.7795 26 11.4139V19.5C26 20.8807 27.1193 22 28.5 22H39.5C40.8807 22 42 20.8807 42 19.5V11.4139C42 10.7795 41.8276 10.1571 41.5012 9.61315L40.0616 7.21376C39.6098 6.46075 38.796 6 37.9179 6H34ZM33.25 7.5V10.25H27.866L29.2247 7.9855C29.4054 7.6843 29.7309 7.5 30.0821 7.5H33.25ZM27.5 11.75V19.5C27.5 20.0523 27.9477 20.5 28.5 20.5H39.5C40.0523 20.5 40.5 20.0523 40.5 19.5V11.75H27.5ZM10.6986 25.5H14.25V28.75H7.89929L9.41233 26.2283C9.68342 25.7764 10.1717 25.5 10.6986 25.5ZM15.75 28.75V25.5H19.3014C19.8283 25.5 20.3166 25.7764 20.5877 26.2283L22.1007 28.75H15.75ZM22.5 30.25V39C22.5 39.8284 21.8284 40.5 21 40.5H9C8.17157 40.5 7.5 39.8284 7.5 39V30.25H22.5ZM8.12609 25.4565C8.66826 24.5529 9.64478 24 10.6986 24H19.3014C20.3552 24 21.3317 24.5529 21.8739 25.4565L23.43 28.05C23.803 28.6716 24 29.383 24 30.1079V39C24 40.6569 22.6569 42 21 42H9C7.34315 42 6 40.6569 6 39V30.1079C6 29.383 6.19703 28.6716 6.57003 28.05L8.12609 25.4565ZM8.75 35.5C8.75 35.0858 9.08579 34.75 9.5 34.75H13.5C13.9142 34.75 14.25 35.0858 14.25 35.5C14.25 35.9142 13.9142 36.25 13.5 36.25H9.5C9.08579 36.25 8.75 35.9142 8.75 35.5ZM8.75 38C8.75 37.5858 9.08579 37.25 9.5 37.25H11.5C11.9142 37.25 12.25 37.5858 12.25 38C12.25 38.4142 11.9142 38.75 11.5 38.75H9.5C9.08579 38.75 8.75 38.4142 8.75 38ZM30 15.25C29.5858 15.25 29.25 15.5858 29.25 16C29.25 16.4142 29.5858 16.75 30 16.75H34C34.4142 16.75 34.75 16.4142 34.75 16C34.75 15.5858 34.4142 15.25 34 15.25H30ZM30 17.75C29.5858 17.75 29.25 18.0858 29.25 18.5C29.25 18.9142 29.5858 19.25 30 19.25H32C32.4142 19.25 32.75 18.9142 32.75 18.5C32.75 18.0858 32.4142 17.75 32 17.75H30ZM34.5303 27.4697L37.0303 29.9697C37.3232 30.2626 37.3232 30.7374 37.0303 31.0303C36.7374 31.3232 36.2626 31.3232 35.9697 31.0303L34.75 29.8107V31.5C34.75 33.5711 33.0711 35.25 31 35.25H28C27.5858 35.25 27.25 34.9142 27.25 34.5C27.25 34.0858 27.5858 33.75 28 33.75H31C32.2426 33.75 33.25 32.7426 33.25 31.5V29.8107L32.0303 31.0303C31.7374 31.3232 31.2626 31.3232 30.9697 31.0303C30.6768 30.7374 30.6768 30.2626 30.9697 29.9697L33.4697 27.4697C33.7626 27.1768 34.2374 27.1768 34.5303 27.4697ZM14.4697 21.0303C14.7626 21.3232 15.2374 21.3232 15.5303 21.0303L18.0303 18.5303C18.3232 18.2374 18.3232 17.7626 18.0303 17.4697C17.7374 17.1768 17.2626 17.1768 16.9697 17.4697L15.75 18.6893V17C15.75 15.7574 16.7574 14.75 18 14.75H21C21.4142 14.75 21.75 14.4142 21.75 14C21.75 13.5858 21.4142 13.25 21 13.25H18C15.9289 13.25 14.25 14.9289 14.25 17V18.6893L13.0303 17.4697C12.7374 17.1768 12.2626 17.1768 11.9697 17.4697C11.6768 17.7626 11.6768 18.2374 11.9697 18.5303L14.4697 21.0303Z" fill="currentColor"></path>
      </svg>