<svg id="icon-delete" xmlns="http://www.w3.org/2000/svg" fill="none" viewBox="0 0 20 20" class="design-iconfont">
        <path d="M11.7069 8.2931C12.1782 8.2931 12.5604 8.6752 12.5604 9.14655V13.9828C12.5604 14.4541 12.1782 14.8362 11.7069 14.8362C11.2356 14.8362 10.8535 14.4541 10.8535 13.9828V9.14655C10.8535 8.6752 11.2356 8.2931 11.7069 8.2931Z" fill="color(display-p3 .5569 .1216 .0431)"></path>  <path d="M9.14656 9.14655C9.14656 8.6752 8.76446 8.2931 8.29311 8.2931C7.82176 8.2931 7.43966 8.6752 7.43966 9.14655V13.9828C7.43966 14.4541 7.82176 14.8362 8.29311 14.8362C8.76446 14.8362 9.14656 14.4541 9.14656 13.9828V9.14655Z" fill="color(display-p3 .5569 .1216 .0431)"></path>  <path fill-rule="evenodd" clip-rule="evenodd" d="M6.87063 4.87931C6.87063 3.15104 8.27167 1.75 9.99994 1.75C11.7282 1.75 13.1292 3.15104 13.1292 4.87931H16.5431C17.0145 4.87931 17.3966 5.26141 17.3966 5.73276C17.3966 6.2041 17.0145 6.58621 16.5431 6.58621H15.6896L15.6894 12.788C15.6894 14.6999 15.6894 15.6558 15.3173 16.3861C14.99 17.0284 14.4677 17.5506 13.8254 17.8779C13.0951 18.25 12.1392 18.25 10.2273 18.25H9.7724C7.86045 18.25 6.90447 18.25 6.1742 17.8779C5.53184 17.5506 5.00959 17.0284 4.6823 16.386C4.31022 15.6557 4.31024 14.6998 4.31028 12.7878L4.31041 6.58621H3.4569C2.98556 6.58621 2.60345 6.2041 2.60345 5.73276C2.60345 5.26141 2.98556 4.87931 3.4569 4.87931H6.87063ZM8.57752 4.87931C8.57752 4.09373 9.21436 3.4569 9.99994 3.4569C10.7855 3.4569 11.4223 4.09373 11.4223 4.87931H8.57752ZM6.01732 6.58621H13.9826L13.9825 12.788C13.9825 13.7721 13.9812 14.4075 13.9416 14.8911C13.9037 15.3548 13.8394 15.5267 13.7964 15.6111C13.6328 15.9323 13.3716 16.1934 13.0505 16.3571C12.9661 16.4001 12.7942 16.4644 12.3305 16.5023C11.8468 16.5418 11.2114 16.5431 10.2273 16.5431H9.7724C8.78826 16.5431 8.15281 16.5418 7.66917 16.5023C7.20545 16.4644 7.03353 16.4001 6.94913 16.3571C6.62795 16.1934 6.36683 15.9323 6.20318 15.6111C6.16018 15.5267 6.09587 15.3548 6.05799 14.8911C6.01849 14.4074 6.01718 13.772 6.0172 12.7879L6.01732 6.58621Z" fill="color(display-p3 .5569 .1216 .0431)"></path>
      </svg>