<svg id="icon-ExchangePhone" xmlns="http://www.w3.org/2000/svg" fill="none" viewBox="0 0 128 128" class="mdu25m5n8__design-iconfont">
        <path fill-rule="evenodd" clip-rule="evenodd" d="M92.6667 20H101.114C102.051 20 102.919 20.4915 103.401 21.2947L107.024 27.3333H92.6667V20ZM90.6667 16H80.219C77.8773 16 75.7073 17.2287 74.5024 19.2367L70.6634 25.6351C69.7931 27.0856 69.3333 28.7454 69.3333 30.437V52C69.3333 55.6819 72.3181 58.6667 76 58.6667H105.333C109.015 58.6667 112 55.6819 112 52V30.437C112 28.7454 111.54 27.0856 110.67 25.6351L106.831 19.2367C105.626 17.2287 103.456 16 101.114 16H90.6667ZM88.6667 20V27.3333H74.3092L77.9324 21.2947C78.4143 20.4915 79.2823 20 80.219 20H88.6667ZM73.3333 31.3333V52C73.3333 53.4728 74.5272 54.6667 76 54.6667H105.333C106.806 54.6667 108 53.4728 108 52V31.3333H73.3333ZM28.5295 68H38V76.6667H21.0648L25.0996 69.942C25.8224 68.7372 27.1245 68 28.5295 68ZM42 76.6667V68H51.4705C52.8755 68 54.1776 68.7372 54.9005 69.942L58.9352 76.6667H42ZM20 80.6667H60V104C60 106.209 58.2091 108 56 108H24C21.7909 108 20 106.209 20 104V80.6667ZM21.6696 67.884C23.1154 65.4744 25.7194 64 28.5295 64H51.4705C54.2806 64 56.8846 65.4744 58.3304 67.884L62.4799 74.7999C63.4746 76.4576 64 78.3546 64 80.2878V104C64 108.418 60.4183 112 56 112H24C19.5817 112 16 108.418 16 104V80.2878C16 78.3546 16.5254 76.4576 17.5201 74.7999L21.6696 67.884ZM23.3333 94.6667C23.3333 93.5621 24.2288 92.6667 25.3333 92.6667H36C37.1046 92.6667 38 93.5621 38 94.6667C38 95.7712 37.1046 96.6667 36 96.6667H25.3333C24.2288 96.6667 23.3333 95.7712 23.3333 94.6667ZM23.3333 101.333C23.3333 100.229 24.2288 99.3333 25.3333 99.3333H30.6667C31.7712 99.3333 32.6667 100.229 32.6667 101.333C32.6667 102.438 31.7712 103.333 30.6667 103.333H25.3333C24.2288 103.333 23.3333 102.438 23.3333 101.333ZM80 40.6667C78.8954 40.6667 78 41.5621 78 42.6667C78 43.7712 78.8954 44.6667 80 44.6667H90.6667C91.7712 44.6667 92.6667 43.7712 92.6667 42.6667C92.6667 41.5621 91.7712 40.6667 90.6667 40.6667H80ZM80 47.3333C78.8954 47.3333 78 48.2288 78 49.3333C78 50.4379 78.8954 51.3333 80 51.3333H85.3333C86.4379 51.3333 87.3333 50.4379 87.3333 49.3333C87.3333 48.2288 86.4379 47.3333 85.3333 47.3333H80ZM92.0809 73.2525L98.7476 79.9191C99.5286 80.7002 99.5286 81.9665 98.7476 82.7476C97.9665 83.5286 96.7002 83.5286 95.9191 82.7476L92.6667 79.4951V84C92.6667 89.5229 88.1895 94 82.6667 94H74.6667C73.5621 94 72.6667 93.1046 72.6667 92C72.6667 90.8954 73.5621 90 74.6667 90H82.6667C85.9804 90 88.6667 87.3137 88.6667 84V79.4951L85.4142 82.7476C84.6332 83.5286 83.3668 83.5286 82.5858 82.7476C81.8047 81.9665 81.8047 80.7002 82.5858 79.9191L89.2525 73.2525C90.0335 72.4714 91.2998 72.4714 92.0809 73.2525ZM38.5858 56.0809C39.3668 56.8619 40.6332 56.8619 41.4142 56.0809L48.0809 49.4142C48.8619 48.6332 48.8619 47.3668 48.0809 46.5858C47.2998 45.8047 46.0335 45.8047 45.2525 46.5858L42 49.8382V45.3333C42 42.0196 44.6863 39.3333 48 39.3333H56C57.1046 39.3333 58 38.4379 58 37.3333C58 36.2288 57.1046 35.3333 56 35.3333H48C42.4772 35.3333 38 39.8105 38 45.3333V49.8382L34.7475 46.5858C33.9665 45.8047 32.7002 45.8047 31.9191 46.5858C31.1381 47.3668 31.1381 48.6332 31.9191 49.4142L38.5858 56.0809Z" fill="currentColor"></path>
      </svg>