<svg id="icon-Switch" xmlns="http://www.w3.org/2000/svg" viewBox="0 0 24 24" class="clptyvlu1__design-iconfont">
        <g clip-path="url(#clptyvlu1__92omaah5u__clip0_2335_41891)">    <path d="M1.07988 7.37999C1.12988 7.49999 1.19988 7.60999 1.28988 7.69999L4.28988 10.7C4.67988 11.09 5.30988 11.09 5.69988 10.7C6.08988 10.31 6.08988 9.67999 5.69988 9.28999L4.40988 7.99999H21.9999C22.5499 7.99999 22.9999 7.54999 22.9999 6.99999C22.9999 6.44999 22.5499 5.99999 21.9999 5.99999H4.40988L5.69988 4.70999C6.08988 4.31999 6.08988 3.68999 5.69988 3.29999C5.30988 2.90999 4.67988 2.89999 4.28988 3.28999L1.28988 6.28999C1.19988 6.37999 1.12988 6.48999 1.07988 6.60999C0.979883 6.84999 0.979883 7.12999 1.07988 7.36999V7.37999Z"></path>    <path d="M22.92 16.6201C22.87 16.5001 22.8 16.3901 22.7 16.3001L19.7 13.3001C19.31 12.9101 18.68 12.9101 18.29 13.3001C17.9 13.6901 17.9 14.3201 18.29 14.7101L19.58 16.0001H2C1.45 16.0001 1 16.4501 1 17.0001C1 17.5501 1.45 18.0001 2 18.0001H19.59L18.3 19.2901C17.91 19.6801 17.91 20.3101 18.3 20.7001C18.69 21.0901 19.32 21.0901 19.71 20.7001L22.71 17.7001C22.8 17.6101 22.88 17.5001 22.93 17.3801C23.03 17.1401 23.03 16.8601 22.93 16.6201H22.92Z"></path>  </g>  <defs>    <clipPath id="clptyvlu1__92omaah5u__clip0_2335_41891">      <path transform="translate(1 3)" d="M0 0H22V18H0z"></path>    </clipPath>  </defs>
      </svg>