<svg id="icon-returnlabelsetting_selected" xmlns="http://www.w3.org/2000/svg" viewBox="0 0 20 20" class="0gbno4gj2__design-iconfont">
        <path fill-rule="evenodd" clip-rule="evenodd" d="M7.353 2.79346H11.897C12.4581 2.79345 12.9265 2.79344 13.3085 2.82618C13.7072 2.86036 14.0807 2.93433 14.4309 3.12328C14.903 3.37806 15.2904 3.76541 15.5452 4.2376C15.7341 4.5878 15.8081 4.9613 15.8423 5.35997C15.875 5.74195 15.875 6.2103 15.875 6.77144V10.1435C15.875 10.5577 15.5392 10.8935 15.125 10.8935C14.7108 10.8935 14.375 10.5577 14.375 10.1435V6.80346C14.375 6.20206 14.3744 5.79838 14.3478 5.48809C14.322 5.18722 14.276 5.04426 14.2251 4.94989C14.1093 4.73525 13.9332 4.55919 13.7186 4.44338C13.6242 4.39246 13.4812 4.34649 13.1804 4.3207C12.8701 4.2941 12.4664 4.29346 11.865 4.29346H7.385C6.7836 4.29346 6.37993 4.2941 6.06963 4.3207C5.76877 4.34649 5.6258 4.39246 5.53143 4.44338C5.3168 4.55919 5.14073 4.73525 5.02492 4.94989C4.974 5.04426 4.92804 5.18722 4.90224 5.48809C4.87564 5.79838 4.875 6.20206 4.875 6.80345V13.1965C4.875 13.7979 4.87564 14.2016 4.90224 14.5119C4.92804 14.8127 4.974 14.9557 5.02492 15.0501C5.14073 15.2647 5.3168 15.4408 5.53143 15.5566C5.6258 15.6075 5.76877 15.6535 6.06963 15.6793C6.37993 15.7059 6.7836 15.7065 7.385 15.7065H9.625C10.0392 15.7065 10.375 16.0423 10.375 16.4565C10.375 16.8707 10.0392 17.2065 9.625 17.2065H7.35298C6.79184 17.2065 6.32349 17.2065 5.94151 17.1738C5.54285 17.1396 5.16934 17.0656 4.81914 16.8767C4.34695 16.6219 3.95961 16.2345 3.70483 15.7624C3.51587 15.4122 3.4419 15.0387 3.40773 14.64C3.37498 14.258 3.37499 13.7896 3.375 13.2285V6.77145C3.37499 6.21031 3.37498 5.74195 3.40773 5.35996C3.4419 4.9613 3.51587 4.5878 3.70483 4.2376C3.95961 3.76541 4.34695 3.37806 4.81915 3.12328C5.16934 2.93433 5.54285 2.86036 5.94151 2.82618C6.3235 2.79344 6.79185 2.79345 7.353 2.79346Z"></path>  <path d="M6.125 7.29346C6.125 6.87924 6.46079 6.54346 6.875 6.54346H12.375C12.7892 6.54346 13.125 6.87924 13.125 7.29346C13.125 7.70767 12.7892 8.04346 12.375 8.04346H6.875C6.46079 8.04346 6.125 7.70767 6.125 7.29346Z"></path>  <path d="M6.125 10.1418C6.125 9.72763 6.46079 9.39185 6.875 9.39185H11.3632C11.7774 9.39185 12.1132 9.72763 12.1132 10.1418C12.1132 10.5561 11.7774 10.8918 11.3632 10.8918H6.875C6.46079 10.8918 6.125 10.5561 6.125 10.1418Z"></path>  <path d="M6.125 12.9902C6.125 12.576 6.46079 12.2402 6.875 12.2402H10.2744C10.6886 12.2402 11.0244 12.576 11.0244 12.9902C11.0244 13.4044 10.6886 13.7402 10.2744 13.7402H6.875C6.46079 13.7402 6.125 13.4044 6.125 12.9902Z"></path>  <path d="M16.501 13.0634C16.6663 12.8981 16.6663 12.6301 16.501 12.4648L15.6031 11.5668C15.4378 11.4015 15.1698 11.4015 15.0045 11.5668L14.1942 12.3771L15.6908 13.8737L16.501 13.0634Z"></path>  <path d="M15.0921 14.4723L13.5956 12.9757L11.5224 15.049C11.2063 15.365 11.028 15.7933 11.0265 16.2403L11.0244 16.8311C11.024 16.9485 11.1193 17.0439 11.2368 17.0434L11.8276 17.0414C12.2746 17.0398 12.7028 16.8616 13.0189 16.5455L15.0921 14.4723Z"></path>
      </svg>