<svg id="icon-done" xmlns="http://www.w3.org/2000/svg" fill="none" viewBox="0 0 20 20" class="design-iconfont">
        <path d="M13.8661 8.85717C14.2113 8.51198 14.2113 7.95231 13.8661 7.60711C13.5209 7.26192 12.9612 7.26192 12.616 7.60711L9.11607 11.1071L7.6786 9.66961C7.33341 9.32442 6.77374 9.32442 6.42854 9.66961C6.08334 10.0148 6.08334 10.5745 6.42854 10.9197L8.49104 12.9822C8.83624 13.3274 9.39591 13.3274 9.7411 12.9822L13.8661 8.85717Z" fill="#2C2C2C"></path>  <path fill-rule="evenodd" clip-rule="evenodd" d="M18.25 10C18.25 14.5563 14.5563 18.25 10 18.25C5.44365 18.25 1.75 14.5563 1.75 10C1.75 5.44365 5.44365 1.75 10 1.75C14.5563 1.75 18.25 5.44365 18.25 10ZM16.4821 10C16.4821 13.58 13.58 16.4821 10 16.4821C6.42001 16.4821 3.51786 13.58 3.51786 10C3.51786 6.42001 6.42001 3.51786 10 3.51786C13.58 3.51786 16.4821 6.42001 16.4821 10Z" fill="#2C2C2C"></path>
      </svg>