<svg id="icon-Arrow_Left" xmlns="http://www.w3.org/2000/svg" viewBox="0 0 24 24" class="tm7gbbr3d__design-iconfont">
        <path fill-rule="evenodd" clip-rule="evenodd" d="M9.60651 6.70711C9.99703 6.31658 9.99703 5.68342 9.6065 5.29289C9.21598 4.90237 8.58281 4.90237 8.19229 5.29289L2.19231 11.2929C1.99704 11.4882 1.89941 11.7441 1.89941 12C1.89941 12.1356 1.9264 12.2649 1.97529 12.3828C2.02409 12.5007 2.09643 12.6112 2.19231 12.7071L8.19229 18.7071C8.58281 19.0976 9.21598 19.0976 9.6065 18.7071C9.99703 18.3166 9.99703 17.6834 9.60651 17.2929L5.31362 13H20.8994C21.4517 13 21.8994 12.5523 21.8994 12C21.8994 11.4477 21.4517 11 20.8994 11H5.31362L9.60651 6.70711Z"></path>
      </svg>