<svg id="icon-Refund_Phone" xmlns="http://www.w3.org/2000/svg" viewBox="0 0 36 36" class="9cr2r8xzz__design-iconfont">
        <path fill-rule="evenodd" clip-rule="evenodd" d="M4 10.2375C4 8.33624 5.54131 6.79492 7.44262 6.79492H28.5574C30.4587 6.79492 32 8.33624 32 10.2375V20.3359C32 20.7162 31.6917 21.0244 31.3115 21.0244C30.9312 21.0244 30.623 20.7162 30.623 20.3359V13.4507H5.37705V26.7621C5.37705 27.9029 6.30184 28.8277 7.44262 28.8277H20.7541C21.1344 28.8277 21.4426 29.136 21.4426 29.5162C21.4426 29.8965 21.1344 30.2048 20.7541 30.2048H7.44262C5.54131 30.2048 4 28.6634 4 26.7621V10.2375ZM30.623 10.2375V12.0736H5.37705V10.2375C5.37705 9.09676 6.30184 8.17197 7.44262 8.17197H28.5574C29.6982 8.17197 30.623 9.09676 30.623 10.2375Z"></path>  <path d="M13.4098 15.7457H7.44262V17.1228H13.4098V15.7457Z"></path>  <path d="M24.7114 21.4834L26.7492 19.4457C27.018 19.1768 27.018 18.7409 26.7492 18.472C26.4803 18.2031 26.0443 18.2031 25.7754 18.472L22.6597 21.5877C22.337 21.9104 22.337 22.4335 22.6597 22.7562L25.7754 25.8719C26.0443 26.1408 26.4803 26.1408 26.7492 25.8719C27.018 25.6031 27.018 25.1671 26.7492 24.8982L24.7114 22.8605H27.4098C29.0576 22.8605 30.3934 24.1963 30.3934 25.8441C30.3934 27.4919 29.0576 28.8277 27.4098 28.8277H23.7377C23.3574 28.8277 23.0492 29.136 23.0492 29.5162C23.0492 29.8965 23.3574 30.2048 23.7377 30.2048H27.4098C29.8182 30.2048 31.7705 28.2524 31.7705 25.8441C31.7705 23.4358 29.8182 21.4834 27.4098 21.4834H24.7114Z"></path>
      </svg>