<svg id="icon-Plus" xmlns="http://www.w3.org/2000/svg" viewBox="0 0 24 24" class="to134xkd0__design-iconfont">
        <path fill-rule="evenodd" clip-rule="evenodd" d="M13.0303 5.00131C13.031 4.44902 12.5839 4.00072 12.0316 4C11.4793 3.99928 11.031 4.44641 11.0303 4.99869L11.0224 11H5C4.44772 11 4 11.4477 4 12C4 12.5523 4.44772 13 5 13H11.0198L11.012 18.9987C11.0112 19.551 11.4584 19.9993 12.0107 20C12.5629 20.0007 13.0112 19.5536 13.012 19.0013L13.0198 13H19C19.5523 13 20 12.5523 20 12C20 11.4477 19.5523 11 19 11H13.0224L13.0303 5.00131Z"></path>
      </svg>