<svg id="icon-if" xmlns="http://www.w3.org/2000/svg" fill="none" viewBox="0 0 20 20" class="uljv7hhjo__design-iconfont">
        <path d="M10.9459 2.43553C10.9459 1.91885 10.5223 1.5 9.99992 1.5C9.47749 1.5 9.05398 1.91885 9.05398 2.43553V4.59422C6.02491 5.04554 3.70275 7.63072 3.70275 10.7523V16.0809L2.61482 15.005C2.24541 14.6396 1.64647 14.6396 1.27706 15.005C0.907647 15.3703 0.907647 15.9627 1.27706 16.328L2.6421 17.678C3.75034 18.7741 5.54714 18.7741 6.65538 17.678L8.02042 16.328C8.38983 15.9627 8.38983 15.3703 8.02042 15.005C7.65101 14.6396 7.05207 14.6396 6.68266 15.005L5.59463 16.081V10.7523C5.59463 8.3461 7.56696 6.39547 9.99996 6.39547C12.433 6.39547 14.4053 8.3461 14.4053 10.7523V16.081L13.3173 15.005C12.9479 14.6396 12.349 14.6396 11.9796 15.005C11.6102 15.3703 11.6102 15.9627 11.9796 16.328L13.3446 17.678C14.4529 18.7741 16.2497 18.7741 17.3579 17.678L18.7229 16.328C19.0923 15.9627 19.0923 15.3703 18.7229 15.005C18.3535 14.6396 17.7546 14.6396 17.3852 15.005L16.2972 16.081V10.7523C16.2972 7.6307 13.975 5.04549 10.9459 4.59421V2.43553Z" fill="#2C2C2C"></path>
      </svg>