<svg id="icon-returnlabelsetting_unselected" xmlns="http://www.w3.org/2000/svg" viewBox="0 0 20 20" class="tl4p573qe__design-iconfont">
        <path fill-rule="evenodd" clip-rule="evenodd" d="M5.90119 3.25C4.79662 3.25 3.90119 4.14543 3.90119 5.25V14.75C3.90119 15.8546 4.79662 16.75 5.90119 16.75H9.94829C9.99664 16.75 10.0512 16.7446 10.1113 16.7343C10.1029 16.6764 10.0986 16.6172 10.0988 16.5569L10.1006 16.0295C10.1029 15.3664 10.3674 14.7312 10.8363 14.2623L13.945 11.1536C14.3387 10.7598 14.9114 10.6542 15.4012 10.8367V5.25C15.4012 4.14543 14.5058 3.25 13.4012 3.25H5.90119ZM6.50119 6.25C6.16982 6.25 5.90119 6.51863 5.90119 6.85C5.90119 7.18137 6.16982 7.45 6.50119 7.45H12.3012C12.6326 7.45 12.9012 7.18137 12.9012 6.85C12.9012 6.51863 12.6326 6.25 12.3012 6.25H6.50119ZM5.90119 9.85C5.90119 9.51863 6.16982 9.25 6.50119 9.25H11.3012C11.6326 9.25 11.9012 9.51863 11.9012 9.85C11.9012 10.1814 11.6326 10.45 11.3012 10.45H6.50119C6.16982 10.45 5.90119 10.1814 5.90119 9.85ZM6.50119 12.25C6.16982 12.25 5.90119 12.5186 5.90119 12.85C5.90119 13.1814 6.16982 13.45 6.50119 13.45H10.3012C10.6326 13.45 10.9012 13.1814 10.9012 12.85C10.9012 12.5186 10.6326 12.25 10.3012 12.25H6.50119ZM15.9881 12.6623C16.1357 12.8099 16.1357 13.0492 15.9881 13.1967L15.2647 13.9201L13.9287 12.5841L14.6521 11.8607C14.7996 11.7131 15.0389 11.7131 15.1865 11.8607L15.9881 12.6623ZM13.3943 13.1185L14.7303 14.4545L12.8794 16.3054C12.5972 16.5876 12.2149 16.7468 11.8158 16.7482L11.2884 16.75C11.1835 16.7504 11.0984 16.6653 11.0988 16.5604L11.1006 16.033C11.102 15.6339 11.2612 15.2516 11.5434 14.9694L13.3943 13.1185Z"></path>
      </svg>