<svg id="icon-Caution" xmlns="http://www.w3.org/2000/svg" viewBox="0 0 24 24" class="1mh1ojipc__design-iconfont">
        <path d="M12 15.5C12.5523 15.5 13 15.9477 13 16.5V17C13 17.5523 12.5523 18 12 18C11.4477 18 11 17.5523 11 17V16.5C11 15.9477 11.4477 15.5 12 15.5Z"></path>  <path d="M13 8.49941C12.9995 7.94713 12.5515 7.49979 11.9992 7.50024C11.4469 7.5007 10.9995 7.94879 11 8.50107L11.0042 13.5008C11.0046 14.0531 11.4527 14.5005 12.005 14.5C12.5573 14.4995 13.0046 14.0514 13.0042 13.4992L13 8.49941Z"></path>  <path fill-rule="evenodd" clip-rule="evenodd" d="M12 0.5C12.3568 0.5 12.6866 0.690147 12.8654 0.998964L23.8654 19.999C24.0445 20.3083 24.0449 20.6898 23.8663 20.9995C23.6878 21.3092 23.3575 21.5 23 21.5H1C0.642521 21.5 0.31223 21.3092 0.133676 20.9995C-0.0448788 20.6898 -0.0445365 20.3083 0.134574 19.999L11.1346 0.998964C11.3134 0.690147 11.6432 0.5 12 0.5ZM21.2656 19.5L12 3.49586L2.73445 19.5H21.2656Z"></path>
      </svg>