<svg id="icon-close_spot-small" xmlns="http://www.w3.org/2000/svg" fill="none" viewBox="0 0 20 20" class="design-iconfont">
        <path d="M12.8536 7.14645C13.0488 7.34171 13.0488 7.65829 12.8536 7.85355L10.7071 10L12.8536 12.1464C13.0488 12.3417 13.0488 12.6583 12.8536 12.8536C12.6583 13.0488 12.3417 13.0488 12.1464 12.8536L10 10.7071L7.85355 12.8536C7.65829 13.0488 7.34171 13.0488 7.14645 12.8536C6.95118 12.6583 6.95118 12.3417 7.14645 12.1464L9.29289 10L7.14645 7.85355C6.95118 7.65829 6.95118 7.34171 7.14645 7.14645C7.34171 6.95118 7.65829 6.95118 7.85355 7.14645L10 9.29289L12.1464 7.14645C12.3417 6.95118 12.6583 6.95118 12.8536 7.14645Z" fill="color(display-p3 .5412 .5412 .5412)"></path>  <path fill-rule="evenodd" clip-rule="evenodd" d="M10 17C13.866 17 17 13.866 17 10C17 6.13401 13.866 3 10 3C6.13401 3 3 6.13401 3 10C3 13.866 6.13401 17 10 17ZM10 16C13.3137 16 16 13.3137 16 10C16 6.68629 13.3137 4 10 4C6.68629 4 4 6.68629 4 10C4 13.3137 6.68629 16 10 16Z" fill="color(display-p3 .5412 .5412 .5412)"></path>
      </svg>