<svg id="icon-Refund_PC" xmlns="http://www.w3.org/2000/svg" viewBox="0 0 48 48" class="ur5c69j7t__design-iconfont">
        <path fill-rule="evenodd" clip-rule="evenodd" d="M7.81982 14.9622C7.81982 12.8085 9.56578 11.0625 11.7195 11.0625H35.6376C37.7914 11.0625 39.5373 12.8085 39.5373 14.9622V26.4013C39.5373 26.832 39.1881 27.1812 38.7574 27.1812C38.3266 27.1812 37.9774 26.832 37.9774 26.4013V18.6019H9.3797V33.6807C9.3797 34.973 10.4273 36.0205 11.7195 36.0205H26.7983C27.2291 36.0205 27.5783 36.3697 27.5783 36.8005C27.5783 37.2312 27.2291 37.5804 26.7983 37.5804H11.7195C9.56578 37.5804 7.81982 35.8345 7.81982 33.6807V14.9622ZM37.9774 14.9622V17.042H9.3797V14.9622C9.3797 13.6699 10.4273 12.6224 11.7195 12.6224H35.6376C36.9299 12.6224 37.9774 13.6699 37.9774 14.9622Z"></path>  <path d="M18.479 21.2017H11.7195V22.7616H18.479V21.2017Z"></path>  <path d="M31.2811 27.7012L33.5893 25.3929C33.8939 25.0883 33.8939 24.5945 33.5893 24.2899C33.2848 23.9853 32.7909 23.9853 32.4863 24.2899L28.9569 27.8193C28.5914 28.1848 28.5914 28.7774 28.9569 29.1429L32.4863 32.6723C32.7909 32.9769 33.2848 32.9769 33.5893 32.6723C33.8939 32.3678 33.8939 31.8739 33.5893 31.5693L31.2811 29.2611H34.3377C36.2043 29.2611 37.7175 30.7742 37.7175 32.6408C37.7175 34.5074 36.2043 36.0205 34.3377 36.0205H30.1781C29.7473 36.0205 29.3981 36.3697 29.3981 36.8005C29.3981 37.2312 29.7473 37.5804 30.1781 37.5804H34.3377C37.0658 37.5804 39.2773 35.3689 39.2773 32.6408C39.2773 29.9127 37.0658 27.7012 34.3377 27.7012H31.2811Z"></path>
      </svg>