<svg id="icon-Policies-filled" xmlns="http://www.w3.org/2000/svg" fill="none" viewBox="0 0 20 20" class="ud476ienm__design-iconfont">
        <path fill-rule="evenodd" clip-rule="evenodd" d="M5.75 3.75C4.50736 3.75 3.5 4.75736 3.5 6V9.5C3.5 9.91421 3.83579 10.25 4.25 10.25H6.5V14.75C6.5 15.7059 7.17055 16.5051 8.06692 16.703C8.26326 16.5746 8.49791 16.5 8.75 16.5C9.16421 16.5 9.5 16.1642 9.5 15.75V14.75C9.5 14.0596 10.0596 13.5 10.75 13.5H16V5.25C16 4.42157 15.3284 3.75 14.5 3.75L5.75599 3.75001L5.75 3.75ZM6.5 6C6.5 5.58579 6.16421 5.25 5.75 5.25C5.33579 5.25 5 5.58579 5 6V8.75H6.5V6ZM9.125 7.5C9.125 7.15482 9.40482 6.875 9.75 6.875H12.75C13.0952 6.875 13.375 7.15482 13.375 7.5C13.375 7.84518 13.0952 8.125 12.75 8.125H9.75C9.40482 8.125 9.125 7.84518 9.125 7.5ZM9.75 9.875C9.40482 9.875 9.125 10.1548 9.125 10.5C9.125 10.8452 9.40482 11.125 9.75 11.125H12.75C13.0952 11.125 13.375 10.8452 13.375 10.5C13.375 10.1548 13.0952 9.875 12.75 9.875H9.75Z" fill="currentColor"></path>  <path d="M10.6046 16.5C10.5696 16.5865 10.5287 16.67 10.4824 16.75C10.1366 17.3478 9.49028 17.75 8.75 17.75H16.5C17.3284 17.75 18 17.0784 18 16.25V14.75H10.75V15.75C10.75 16.0152 10.6984 16.2684 10.6046 16.5Z" fill="currentColor"></path>
      </svg>