<svg id="icon-Failed" xmlns="http://www.w3.org/2000/svg" fill="none" viewBox="0 0 31 30" class="y1ytgjkw5__design-iconfont">
        <path d="M15.6127 10.125C16.2341 10.125 16.7377 10.6287 16.7377 11.25V16.5C16.7377 17.1213 16.2341 17.625 15.6127 17.625C14.9914 17.625 14.4877 17.1213 14.4877 16.5V11.25C14.4877 10.6287 14.9914 10.125 15.6127 10.125Z" fill="currentColor"></path>  <path d="M17.1128 20.25C17.1128 21.0784 16.4413 21.75 15.6128 21.75C14.7844 21.75 14.1128 21.0784 14.1128 20.25C14.1128 19.4216 14.7844 18.75 15.6128 18.75C16.4413 18.75 17.1128 19.4216 17.1128 20.25Z" fill="currentColor"></path>  <path fill-rule="evenodd" clip-rule="evenodd" d="M15.6129 5.25C14.0449 5.25 12.9371 6.30348 12.3843 7.42007C12.0963 8.00172 10.7526 10.5662 9.37741 13.1903L9.3358 13.2697C7.99719 15.824 6.63855 18.4166 6.32358 19.0529C5.76549 20.1805 5.6068 21.6778 6.46213 22.974C7.31651 24.2687 8.77618 24.75 10.1582 24.75L21.0674 24.75C22.4494 24.75 23.9091 24.2687 24.7635 22.974C25.6188 21.6778 25.4602 20.1805 24.9021 19.0529C24.5876 18.4176 23.2328 15.8325 21.8963 13.2821L21.8481 13.1903C20.4728 10.566 19.1292 8.00181 18.8415 7.42039C18.2888 6.30362 17.181 5.25 15.6129 5.25ZM14.4007 8.41837C15.0069 7.19388 16.2189 7.19388 16.8249 8.41837C17.1281 9.03092 18.4929 11.6353 19.8573 14.2386C21.2202 16.8393 22.5827 19.4391 22.8855 20.051C23.4916 21.2755 22.8855 22.5 21.0674 22.5L10.1582 22.5C8.34009 22.5 7.73403 21.2755 8.34009 20.051C8.64347 19.4381 10.0099 16.8307 11.375 14.2257C12.7371 11.6267 14.0979 9.02991 14.4007 8.41837Z" fill="currentColor"></path>
      </svg>