<svg xmlns="http://www.w3.org/2000/svg" fill="none" viewBox="0 0 40 41" class="design-iconfont" width="124.8780487804878" height="128">
  <path d="M0 6.25C0 2.93629 2.68629 0.25 6 0.25H34C37.3137 0.25 40 2.93629 40 6.25V34.25C40 37.5637 37.3137 40.25 34 40.25H6C2.68629 40.25 0 37.5637 0 34.25V6.25Z" fill="#00BCD4"></path>
  <path d="M18.5999 21.5L16.4497 19.3498C16.3579 19.2587 16.2485 19.1873 16.1282 19.14C16.0079 19.0926 15.8791 19.0704 15.7499 19.0745C15.6207 19.0702 15.4919 19.0924 15.3716 19.1397C15.2512 19.1871 15.1418 19.2585 15.0502 19.3498C14.9591 19.4415 14.8877 19.5509 14.8404 19.6713C14.7931 19.7916 14.7708 19.9203 14.7749 20.0495C14.7659 20.3105 14.8657 20.5633 15.0502 20.7493L17.9002 23.5993C18.0862 23.783 18.3389 23.8835 18.5999 23.8745C18.8609 23.8835 19.1137 23.7838 19.2997 23.5993L24.9494 17.9495C25.1332 17.7635 25.2337 17.5108 25.2247 17.2498C25.229 17.1205 25.2068 16.9917 25.1594 16.8714C25.1121 16.7511 25.0406 16.6417 24.9494 16.55C24.8576 16.4589 24.7482 16.3876 24.6279 16.3402C24.5076 16.2929 24.3789 16.2706 24.2497 16.2748C24.1204 16.2704 23.9917 16.2926 23.8713 16.34C23.751 16.3873 23.6416 16.4588 23.5499 16.55L18.5999 21.5ZM13.0004 29.2498C12.7373 29.2532 12.4763 29.2028 12.2333 29.1019C11.9904 29.0009 11.7706 28.8514 11.5874 28.6625C11.3985 28.4793 11.249 28.2595 11.1481 28.0166C11.0471 27.7736 10.9968 27.5126 11.0002 27.2495V13.2493C11.0002 12.6995 11.1967 12.2285 11.5874 11.8363C11.7706 11.6474 11.9904 11.4979 12.2333 11.3969C12.4763 11.2959 12.7373 11.2456 13.0004 11.249H17.2004C17.4172 10.649 17.7794 10.166 18.2887 9.79926C18.7964 9.43251 19.3679 9.24951 20.0009 9.24951C20.6339 9.24951 21.2047 9.43251 21.7139 9.79926C22.2167 10.1592 22.5962 10.6655 22.8007 11.249H27.0007C27.5504 11.249 28.0214 11.4448 28.4137 11.8363C28.8044 12.2285 29.0009 12.6995 29.0009 13.2493V27.2495C29.0043 27.5126 28.954 27.7736 28.853 28.0166C28.752 28.2595 28.6025 28.4793 28.4137 28.6625C28.2305 28.8514 28.0107 29.0009 27.7677 29.1019C27.5248 29.2028 27.2638 29.2532 27.0007 29.2498H13.0004ZM20.0002 12.5C20.1933 12.5053 20.3806 12.4338 20.5212 12.3012C20.6618 12.1687 20.7441 11.9859 20.7502 11.7928V11.75C20.7533 11.6507 20.736 11.5518 20.6994 11.4593C20.6628 11.3669 20.6077 11.283 20.5374 11.2127C20.4672 11.1425 20.3832 11.0873 20.2908 11.0507C20.1984 11.0142 20.0995 10.9969 20.0002 11C19.9046 10.997 19.8094 11.0129 19.72 11.0467C19.6306 11.0805 19.5487 11.1316 19.4791 11.1971C19.4094 11.2626 19.3533 11.3411 19.3141 11.4283C19.2748 11.5154 19.2531 11.6095 19.2502 11.705V11.75C19.2467 11.8494 19.2637 11.9485 19.3002 12.0411C19.3367 12.1336 19.3918 12.2177 19.4621 12.288C19.5325 12.3584 19.6166 12.4135 19.7091 12.45C19.8017 12.4864 19.9007 12.5035 20.0002 12.5Z" fill="#fff"></path>
</svg>